<svg xmlns="http://www.w3.org/2000/svg" viewBox="0 0 720 900" role="img" aria-labelledby="title desc">
  <title id="title">Jade wrap dress</title>
  <desc id="desc">A jade green wrap dress with short sleeves and a tied waist.</desc>
  <rect width="720" height="900" fill="#e8f8ef"/>
  <circle cx="360" cy="180" r="76" fill="#f3c9b4"/>
  <path d="M286 250h148l44 100-58 38 92 356H208l92-356-58-38z" fill="#007b70"/>
  <path d="M288 252l142 494H208l92-356-58-38z" fill="#0a9a88" opacity=".86"/>
  <path d="M330 252l88 136-130 62" fill="none" stroke="#f3faf7" stroke-width="18" stroke-linecap="round"/>
  <path d="M258 440c74 26 146 26 216 0" fill="none" stroke="#074d46" stroke-width="20" stroke-linecap="round"/>
  <path d="M260 452l-54 68M460 452l64 72" fill="none" stroke="#074d46" stroke-width="14" stroke-linecap="round"/>
  <path d="M242 350l-92 122M478 350l92 122" fill="none" stroke="#007b70" stroke-width="48" stroke-linecap="round"/>
  <text x="360" y="836" text-anchor="middle" font-family="Inter, Arial, sans-serif" font-size="34" font-weight="800" fill="#13211f">Luna Wrap</text>
</svg>
